<?xml version="1.0" encoding="UTF-8" standalone="no"?>
<!-- Created with Inkscape (http://www.inkscape.org/) -->

<svg
   width="62.444485mm"
   height="30.550274mm"
   viewBox="0 0 62.444485 30.550274"
   version="1.1"
   id="cloud-7"
   inkscape:version="1.3.2 (091e20e, 2023-11-25, custom)"
   sodipodi:docname="cloud-7.svg"
   xmlns:inkscape="http://www.inkscape.org/namespaces/inkscape"
   xmlns:sodipodi="http://sodipodi.sourceforge.net/DTD/sodipodi-0.dtd"
   xmlns="http://www.w3.org/2000/svg"
   xmlns:svg="http://www.w3.org/2000/svg">
  <sodipodi:namedview
     id="namedview1"
     pagecolor="#ffffff"
     bordercolor="#000000"
     borderopacity="0.25"
     inkscape:showpageshadow="2"
     inkscape:pageopacity="0.0"
     inkscape:pagecheckerboard="0"
     inkscape:deskcolor="#d1d1d1"
     inkscape:document-units="mm"
     inkscape:zoom="0.53362093"
     inkscape:cx="118.06134"
     inkscape:cy="57.156678"
     inkscape:window-width="1440"
     inkscape:window-height="837"
     inkscape:window-x="-8"
     inkscape:window-y="-8"
     inkscape:window-maximized="1"
     inkscape:current-layer="layer1" />
  <defs
     id="defs1">
    <clipPath
       clipPathUnits="userSpaceOnUse"
       id="clipPath21">
      <path
         d="M 0,500 H 500 V 0 H 0 Z"
         transform="translate(-163.7484,-62.655502)"
         id="path21" />
    </clipPath>
    <clipPath
       clipPathUnits="userSpaceOnUse"
       id="clipPath23">
      <path
         d="M 0,500 H 500 V 0 H 0 Z"
         transform="translate(-117.9309,-72.876802)"
         id="path23" />
    </clipPath>
    <clipPath
       clipPathUnits="userSpaceOnUse"
       id="clipPath25">
      <path
         d="M 0,500 H 500 V 0 H 0 Z"
         transform="translate(-184.93281,-55.493301)"
         id="path25" />
    </clipPath>
    <clipPath
       clipPathUnits="userSpaceOnUse"
       id="clipPath27">
      <path
         d="M 0,500 H 500 V 0 H 0 Z"
         transform="translate(-183.01731,-55.493301)"
         id="path27" />
    </clipPath>
    <clipPath
       clipPathUnits="userSpaceOnUse"
       id="clipPath29">
      <path
         d="M 0,500 H 500 V 0 H 0 Z"
         transform="translate(-205.45971,-77.197904)"
         id="path29" />
    </clipPath>
    <clipPath
       clipPathUnits="userSpaceOnUse"
       id="clipPath31">
      <path
         d="M 0,500 H 500 V 0 H 0 Z"
         transform="translate(-145.3501,-96.6144)"
         id="path31" />
    </clipPath>
    <clipPath
       clipPathUnits="userSpaceOnUse"
       id="clipPath33">
      <path
         d="M 0,500 H 500 V 0 H 0 Z"
         transform="translate(-122.39031,-137.84651)"
         id="path33" />
    </clipPath>
    <clipPath
       clipPathUnits="userSpaceOnUse"
       id="clipPath35">
      <path
         d="M 0,500 H 500 V 0 H 0 Z"
         transform="translate(-56.513602,-85.5783)"
         id="path35" />
    </clipPath>
  </defs>
  <g
     inkscape:label="Calque 1"
     inkscape:groupmode="layer"
     id="layer1"
     transform="translate(-73.81875,-133.35)">
    <g
       id="g171"
       inkscape:label="cloud-7"
       transform="matrix(0.26458333,0,0,0.26458333,54.681472,6.9118)">
      <path
         id="path20"
         d="m 0,0 c -6.814,-4.524 -14.989,-7.162 -23.781,-7.162 -8.112,0 -15.7,2.245 -22.177,6.146 -4.906,-3.847 -11.083,-6.146 -17.801,-6.146 -4.943,0 -9.595,1.244 -13.663,3.432 -3.269,-2.167 -7.189,-3.432 -11.405,-3.432 -11.418,0 -20.674,9.256 -20.674,20.673 0,11.082 8.719,20.125 19.671,20.649 4.581,9.584 14.291,16.24 25.576,16.43 6.009,16.536 21.861,28.347 40.473,28.347 18.173,0 33.715,-11.26 40.031,-27.184 0.993,0.101 2,0.152 3.019,0.152 13.594,0 25.035,-9.187 28.472,-21.69 0.352,0.02 0.705,0.032 1.061,0.032 10.331,0 18.705,-8.374 18.705,-18.705 0,-10.33 -8.374,-18.704 -18.705,-18.704 -4.991,0 -9.523,1.959 -12.877,5.146 C 31.183,-5.261 25.449,-7.162 19.269,-7.162 11.903,-7.162 5.173,-4.46 0,0"
         style="fill:#ededed;fill-opacity:1;fill-rule:nonzero;stroke:none"
         transform="matrix(1.3333333,0,0,-1.3333333,218.3312,583.126)"
         clip-path="url(#clipPath21)" />
      <path
         id="path22"
         d="m 0,0 c -4.999,-0.572 -10.257,0.708 -14.629,3.199 2.593,-5.461 8.741,-9.014 14.767,-8.535 6.026,0.48 11.534,4.96 13.231,10.763 C 9.672,2.014 4.999,0.571 0,0"
         style="fill:#d9d9d9;fill-opacity:1;fill-rule:nonzero;stroke:none"
         transform="matrix(1.3333333,0,0,-1.3333333,157.2412,569.4976)"
         clip-path="url(#clipPath23)" />
      <path
         id="path24"
         d="M 0,0 H -1.916"
         style="fill:none;stroke:#d9d9d9;stroke-width:1;stroke-linecap:round;stroke-linejoin:round;stroke-miterlimit:4;stroke-dasharray:none;stroke-opacity:1"
         transform="matrix(1.3333333,0,0,-1.3333333,246.57707,592.6756)"
         clip-path="url(#clipPath25)" />
      <path
         id="path26"
         d="M 0,0 H -1.324"
         style="fill:none;stroke:#d9d9d9;stroke-width:1;stroke-linecap:round;stroke-linejoin:round;stroke-miterlimit:4;stroke-dasharray:none;stroke-opacity:1"
         transform="matrix(1.3333333,0,0,-1.3333333,244.02307,592.6756)"
         clip-path="url(#clipPath27)" />
      <path
         id="path28"
         d="m 0,0 c -1.439,-8.901 -13.136,-15.705 -22.442,-15.705 -7.366,0 -14.096,2.703 -19.269,7.163 -6.814,-4.525 -14.989,-7.163 -23.781,-7.163 -8.113,0 -15.7,2.246 -22.177,6.147 -0.022,-0.017 -0.045,-0.031 -0.066,-0.048 l -0.001,0.048 c -4.977,-3.995 -11.273,-6.069 -18.133,-6.134 -1.592,0.022 -3.151,0.17 -4.67,0.44 -8.268,1.655 -16.88,7.697 -18.101,15.252 -0.158,-0.979 -0.262,-1.976 -0.262,-3 0,-7.206 4.187,-12.955 11.507,-16.125 3.337,-1.517 7.013,-2.409 10.883,-2.547 0.107,-0.009 0.207,-0.025 0.315,-0.033 6.971,-0.504 13.47,2.094 18.528,6.147 6.477,-3.901 14.064,-6.147 22.177,-6.147 8.792,0 16.967,2.638 23.781,7.163 5.173,-4.46 11.903,-7.093 19.269,-7.163 C -7.069,-21.85 0.263,-13.33 0.263,-3 0.263,-1.976 0.158,-0.979 0,0"
         style="fill:#d9d9d9;fill-opacity:1;fill-rule:nonzero;stroke:none"
         transform="matrix(1.3333333,0,0,-1.3333333,273.94627,563.73613)"
         clip-path="url(#clipPath29)" />
      <path
         id="path30"
         d="M 0,0 C 5.102,6.358 14.273,9.106 22.031,6.601 29.789,4.096 35.62,-3.497 36.04,-11.638 32.252,-6.009 26.571,-2.662 20.189,-0.356 13.808,1.95 6.512,1.906 0,0"
         style="fill:#f5f5f5;fill-opacity:1;fill-rule:nonzero;stroke:none"
         transform="matrix(1.3333333,0,0,-1.3333333,193.80013,537.84747)"
         clip-path="url(#clipPath31)" />
      <path
         id="path32"
         d="m 0,0 c 5.368,2.404 11.315,3.746 17.577,3.746 18.173,0 33.715,-11.26 40.031,-27.184 0.993,0.101 2,0.152 3.019,0.152 13.594,0 25.036,-9.187 28.472,-21.69 0.352,0.02 0.705,0.032 1.062,0.032 7.047,0 13.182,-3.899 16.371,-9.656 -1.537,1.548 -3.326,2.823 -5.34,3.677 -4.737,2.008 -10.725,1.326 -14.353,-2.322 -1.305,7.389 -5.474,13.647 -11.578,18.01 -6.104,4.363 -13.944,6.223 -21.357,5.066 C 50.251,-17.524 40.214,-6.722 28.036,-1.726 19.216,1.892 9.21,2.426 0,0"
         style="fill:#f5f5f5;fill-opacity:1;fill-rule:nonzero;stroke:none"
         transform="matrix(1.3333333,0,0,-1.3333333,163.18707,482.87133)"
         clip-path="url(#clipPath33)" />
      <path
         id="path34"
         d="m 0,0 c 3.282,6.404 9.804,10.873 17.405,11.237 4.557,9.535 14.193,16.17 25.406,16.424 7.375,-1.918 14.215,-5.933 19.308,-11.61 -5.615,4.311 -12.916,5.544 -19.903,4.405 C 35.229,19.317 28.781,15.187 24.825,9.316 18.844,10.309 12.302,8.573 7.004,5.624 4.375,4.161 2.005,2.244 0,0"
         style="fill:#f5f5f5;fill-opacity:1;fill-rule:nonzero;stroke:none"
         transform="matrix(1.3333333,0,0,-1.3333333,75.351467,552.56227)"
         clip-path="url(#clipPath35)" />
    </g>
  </g>
</svg>
