<?xml version="1.0" encoding="UTF-8" standalone="no"?>
<!-- Created with Inkscape (http://www.inkscape.org/) -->

<svg
   width="62.55949mm"
   height="29.551741mm"
   viewBox="0 0 62.55949 29.551741"
   version="1.1"
   id="cloud-1"
   inkscape:version="1.3.2 (091e20e, 2023-11-25, custom)"
   sodipodi:docname="cloud-1.svg"
   xmlns:inkscape="http://www.inkscape.org/namespaces/inkscape"
   xmlns:sodipodi="http://sodipodi.sourceforge.net/DTD/sodipodi-0.dtd"
   xmlns="http://www.w3.org/2000/svg"
   xmlns:svg="http://www.w3.org/2000/svg">
  <sodipodi:namedview
     id="namedview1"
     pagecolor="#ffffff"
     bordercolor="#000000"
     borderopacity="0.25"
     inkscape:showpageshadow="2"
     inkscape:pageopacity="0.0"
     inkscape:pagecheckerboard="0"
     inkscape:deskcolor="#d1d1d1"
     inkscape:document-units="mm"
     inkscape:zoom="0.53362093"
     inkscape:cx="142.4232"
     inkscape:cy="518.15809"
     inkscape:window-width="1440"
     inkscape:window-height="837"
     inkscape:window-x="-8"
     inkscape:window-y="-8"
     inkscape:window-maximized="1"
     inkscape:current-layer="svg1" />
  <defs
     id="defs1">
    <clipPath
       clipPathUnits="userSpaceOnUse"
       id="clipPath3">
      <path
         d="M 0,500 H 500 V 0 H 0 Z"
         transform="translate(-225.5851,-409.57601)"
         id="path3" />
    </clipPath>
    <clipPath
       clipPathUnits="userSpaceOnUse"
       id="clipPath5">
      <path
         d="M 0,500 H 500 V 0 H 0 Z"
         transform="translate(-118.34871,-439.06041)"
         id="path5" />
    </clipPath>
    <clipPath
       clipPathUnits="userSpaceOnUse"
       id="clipPath7">
      <path
         d="M 0,500 H 500 V 0 H 0 Z"
         transform="translate(-118.34871,-439.06041)"
         id="path7" />
    </clipPath>
    <clipPath
       clipPathUnits="userSpaceOnUse"
       id="clipPath9">
      <path
         d="M 0,500 H 500 V 0 H 0 Z"
         transform="translate(-225.5851,-409.57601)"
         id="path9" />
    </clipPath>
    <clipPath
       clipPathUnits="userSpaceOnUse"
       id="clipPath11">
      <path
         d="M 0,500 H 500 V 0 H 0 Z"
         transform="translate(-199.6855,-422.98461)"
         id="path11" />
    </clipPath>
    <clipPath
       clipPathUnits="userSpaceOnUse"
       id="clipPath13">
      <path
         d="M 0,500 H 500 V 0 H 0 Z"
         transform="translate(-185.3293,-408.52371)"
         id="path13" />
    </clipPath>
    <clipPath
       clipPathUnits="userSpaceOnUse"
       id="clipPath15">
      <path
         d="M 0,500 H 500 V 0 H 0 Z"
         transform="translate(-54.084901,-374.77011)"
         id="path15" />
    </clipPath>
    <clipPath
       clipPathUnits="userSpaceOnUse"
       id="clipPath17">
      <path
         d="M 0,500 H 500 V 0 H 0 Z"
         transform="translate(-163.4814,-403.34491)"
         id="path17" />
    </clipPath>
    <clipPath
       clipPathUnits="userSpaceOnUse"
       id="clipPath19">
      <path
         d="M 0,500 H 500 V 0 H 0 Z"
         transform="translate(-106.6741,-383.73071)"
         id="path19" />
    </clipPath>
  </defs>
  <g
     id="g165"
     inkscape:label="cloud-1"
     transform="matrix(0.26458333,0,0,0.26458333,-19.07981,-20.007185)"
     sodipodi:insensitive="true">
    <path
       id="path2"
       d="m 0,0 c -0.022,0.031 -0.044,0.062 -0.066,0.093 -0.808,1.131 -1.685,2.206 -2.631,3.22 -0.018,0.019 -0.036,0.038 -0.054,0.057 -0.452,0.481 -0.918,0.948 -1.398,1.4 -0.035,0.033 -0.069,0.066 -0.104,0.099 -0.986,0.921 -2.03,1.778 -3.128,2.568 -0.08,0.058 -0.162,0.116 -0.243,0.173 -0.52,0.367 -1.048,0.721 -1.59,1.057 -0.023,0.014 -0.045,0.029 -0.068,0.043 -0.573,0.353 -1.158,0.686 -1.753,1.003 -0.088,0.046 -0.178,0.09 -0.267,0.136 -0.5,0.26 -1.009,0.506 -1.524,0.74 -0.124,0.056 -0.246,0.113 -0.37,0.167 -0.608,0.266 -1.222,0.518 -1.848,0.746 -10e-4,0 -0.003,10e-4 -0.004,10e-4 -0.606,0.22 -1.222,0.417 -1.844,0.601 -0.162,0.047 -0.324,0.093 -0.486,0.138 -0.521,0.145 -1.047,0.277 -1.579,0.396 -0.125,0.028 -0.249,0.06 -0.376,0.086 -0.641,0.135 -1.289,0.25 -1.943,0.346 -0.148,0.021 -0.297,0.037 -0.445,0.056 -0.525,0.069 -1.054,0.125 -1.586,0.168 -0.188,0.016 -0.375,0.031 -0.563,0.043 -0.672,0.043 -1.347,0.072 -2.029,0.072 H -25.9 v 0 c -3.241,0 -6.368,-0.489 -9.314,-1.393 -3.295,8.777 -9.688,14.666 -18.42,17.65 -15,5.125 -24.375,-1.5 -24.375,-1.5 0,0 -5.92,4.798 -11.875,5.375 -7.175,0.694 -12.68,-0.76 -17.333,-4.057 -0.011,-0.002 -0.017,-0.002 -0.019,0 -0.026,-0.02 -0.05,-0.042 -0.075,-0.063 -1.732,-1.239 -3.343,-2.744 -4.881,-4.481 -7.431,-7.686 -11.972,-17.157 -11.972,-29.063 0,-0.129 0.004,-0.256 0.005,-0.383 -0.45,0.082 -0.911,0.132 -1.369,0.189 -0.018,0.007 -0.034,0.015 -0.051,0.021 -0.104,0.013 -0.21,0.018 -0.314,0.03 -0.209,0.022 -0.419,0.042 -0.63,0.059 -0.594,0.049 -1.192,0.084 -1.799,0.084 v 0 c -2.619,0 -5.135,-0.438 -7.479,-1.246 -2.93,-1.009 -5.591,-2.595 -7.849,-4.621 -1.806,-1.622 -3.354,-3.525 -4.574,-5.642 -0.915,-1.587 -1.646,-3.294 -2.164,-5.091 -0.902,0.376 -1.848,0.668 -2.828,0.866 -0.98,0.199 -1.994,0.303 -3.033,0.303 -8.423,0 -15.251,-6.829 -15.251,-15.252 v 0 0 c 0,-0.467 0.029,-0.926 0.07,-1.382 0.01,-0.118 0.022,-0.236 0.035,-0.353 0.051,-0.44 0.113,-0.876 0.2,-1.304 0.009,-0.046 0.021,-0.09 0.031,-0.136 0.083,-0.39 0.184,-0.773 0.296,-1.151 0.04,-0.136 0.082,-0.271 0.125,-0.405 0.118,-0.36 0.246,-0.715 0.389,-1.062 0.051,-0.125 0.107,-0.248 0.162,-0.371 0.131,-0.296 0.271,-0.587 0.42,-0.873 0.076,-0.145 0.154,-0.29 0.234,-0.433 0.035,-0.061 0.065,-0.125 0.101,-0.186 -0.002,0.009 -0.002,0.018 -0.004,0.027 2.639,-4.553 7.552,-7.623 13.192,-7.623 H -25.9 c 17.526,0 31.733,14.208 31.733,31.733 C 5.833,-11.496 3.669,-5.177 0,0"
       style="fill:#f5f5f5;fill-opacity:1;fill-rule:nonzero;stroke:none"
       transform="matrix(1.3333333,0,0,-1.3333333,300.78013,120.56533)"
       clip-path="url(#clipPath3)" />
    <path
       id="path4"
       d="M 0,0 C 0.023,0.018 0.044,0.038 0.066,0.056 0.009,0.021 -0.005,0.006 0,0"
       style="fill:#f5f5f5;fill-opacity:1;fill-rule:nonzero;stroke:none"
       transform="matrix(1.3333333,0,0,-1.3333333,157.79827,81.2528)"
       clip-path="url(#clipPath5)" />
    <path
       id="path6"
       d="M 0,0 C 0.023,0.018 0.044,0.038 0.066,0.056 0.009,0.021 -0.005,0.006 0,0"
       style="fill:#f5f5f5;fill-opacity:1;fill-rule:nonzero;stroke:none"
       transform="matrix(1.3333333,0,0,-1.3333333,157.79827,81.2528)"
       clip-path="url(#clipPath7)" />
    <path
       id="path8"
       d="m 0,0 c -0.022,0.031 -0.044,0.062 -0.066,0.093 -0.808,1.131 -1.685,2.206 -2.631,3.22 -0.018,0.019 -0.036,0.038 -0.054,0.057 -0.452,0.481 -0.918,0.948 -1.398,1.4 -0.035,0.033 -0.069,0.066 -0.104,0.099 -0.986,0.921 -2.03,1.778 -3.128,2.568 -0.08,0.058 -0.162,0.116 -0.243,0.173 -0.52,0.367 -1.048,0.721 -1.59,1.057 -0.023,0.014 -0.045,0.029 -0.068,0.043 -0.573,0.353 -1.158,0.686 -1.753,1.003 -0.088,0.046 -0.178,0.09 -0.267,0.136 -0.5,0.26 -1.009,0.506 -1.524,0.74 -0.124,0.056 -0.246,0.113 -0.37,0.167 -0.608,0.266 -1.222,0.518 -1.848,0.746 -10e-4,0 -0.003,10e-4 -0.004,10e-4 -0.606,0.22 -1.222,0.417 -1.844,0.601 -0.162,0.047 -0.324,0.093 -0.486,0.138 -0.521,0.145 -1.047,0.277 -1.579,0.396 -0.125,0.028 -0.249,0.06 -0.376,0.086 -0.641,0.135 -1.289,0.25 -1.943,0.346 -0.148,0.021 -0.297,0.037 -0.445,0.056 -0.525,0.069 -1.054,0.125 -1.586,0.168 -0.188,0.016 -0.375,0.031 -0.563,0.043 -0.672,0.043 -1.347,0.072 -2.029,0.072 H -25.9 v 0 c -3.241,0 -6.368,-0.489 -9.314,-1.393 -3.295,8.777 -9.688,14.666 -18.42,17.65 -15,5.125 -24.375,-1.5 -24.375,-1.5 0,0 -5.92,4.798 -11.875,5.375 -7.175,0.694 -12.68,-0.76 -17.333,-4.057 -0.011,-0.002 -0.017,-0.002 -0.019,0 -0.026,-0.02 -0.05,-0.042 -0.075,-0.063 -1.732,-1.239 -3.343,-2.744 -4.881,-4.481 -7.431,-7.686 -11.972,-17.157 -11.972,-29.063 0,-0.129 0.004,-0.256 0.005,-0.383 -1.351,0.247 -2.741,0.383 -4.163,0.383 -10.474,0 -19.305,-7.015 -22.066,-16.6 -1.805,0.752 -3.784,1.169 -5.861,1.169 -8.423,0 -15.251,-6.829 -15.251,-15.252 0,-8.423 6.828,-15.252 15.251,-15.252 H -25.9 c 17.526,0 31.733,14.208 31.733,31.733 C 5.833,-11.496 3.669,-5.177 0,0"
       style="fill:#f5f5f5;fill-opacity:1;fill-rule:nonzero;stroke:none"
       transform="matrix(1.3333333,0,0,-1.3333333,300.78013,120.56533)"
       clip-path="url(#clipPath9)" />
    <path
       id="path10"
       d="m 0,0 c -3.242,0 -6.369,-0.489 -9.314,-1.392 -2.109,5.617 -6.797,7.951 -10.796,12.274 0,0 -15.75,12.75 -32.875,1.375 -10.286,12.366 -29.749,2.968 -28.285,3.875 -10.366,-8.422 -16.994,-19.267 -16.994,-33.664 0,-0.128 0.003,-0.256 0.005,-0.383 -1.351,0.247 -2.741,0.383 -4.164,0.383 -10.474,0 -19.304,-7.014 -22.066,-16.599 -1.804,0.751 -3.783,1.168 -5.86,1.168 -8.423,0 -15.252,-6.828 -15.252,-15.252 0,-8.423 6.829,-15.251 15.252,-15.251 H 0 c 17.526,0 31.733,14.207 31.733,31.733 C 31.733,-14.207 17.526,0 0,0"
       style="fill:#ededed;fill-opacity:1;fill-rule:nonzero;stroke:none"
       transform="matrix(1.3333333,0,0,-1.3333333,266.24733,102.6872)"
       clip-path="url(#clipPath11)" />
    <path
       id="path12"
       d="m 0,0 c -0.206,13.12 -3.38,18.38 -15.004,24.468 -10.5,5.5 -24.75,-1.75 -24.75,-1.75 0,0 -3.25,5.25 -17,6 -6.91,0.377 -13.085,-1.583 -18.08,-6.376 6.33,8.876 13.58,13.376 25.205,12.251 5.956,-0.576 11.875,-5.375 11.875,-5.375 0,0 9.375,6.625 24.375,1.5 8.732,-2.983 15.126,-8.872 18.421,-17.649 2.946,0.903 6.072,1.392 9.314,1.392 12.203,0 22.79,-6.891 28.1,-16.991 C 39.296,1.802 34.947,5.266 29.918,7.14 19.728,10.939 7.377,7.991 0,0"
       style="fill:#f5f5f5;fill-opacity:1;fill-rule:nonzero;stroke:none"
       transform="matrix(1.3333333,0,0,-1.3333333,247.10573,121.9684)"
       clip-path="url(#clipPath13)" />
    <path
       id="path14"
       d="m 0,0 c 0,8.423 6.828,15.252 15.251,15.252 2.077,0 4.056,-0.417 5.861,-1.169 2.761,9.585 11.592,16.6 22.066,16.6 0.929,0 1.843,-0.064 2.743,-0.173 5.283,-1.938 9.954,-5.588 12.918,-10.379 C 52.846,24.655 44.67,25.706 37.568,23.268 30.465,20.829 24.744,14.706 22.793,7.455 19.183,10.239 14.207,10.208 10.06,8.313 5.914,6.419 2.905,2.338 2.072,-2.144 1.733,-3.964 1.748,-5.834 2.063,-7.656 0.753,-5.405 0,-2.791 0,0"
       style="fill:#f5f5f5;fill-opacity:1;fill-rule:nonzero;stroke:none"
       transform="matrix(1.3333333,0,0,-1.3333333,72.1132,166.9732)"
       clip-path="url(#clipPath15)" />
    <path
       id="path16"
       d="M 0,0 C 4.851,6.045 13.57,8.658 20.946,6.277 28.322,3.895 33.867,-3.324 34.266,-11.065 30.664,-5.713 25.411,-0.92 19.344,1.272 13.277,3.464 6.191,1.813 0,0"
       style="fill:#f5f5f5;fill-opacity:1;fill-rule:nonzero;stroke:none"
       transform="matrix(1.3333333,0,0,-1.3333333,217.9752,128.87347)"
       clip-path="url(#clipPath17)" />
    <path
       id="path18"
       d="m 0,0 c -0.864,7.878 3.552,16.072 10.606,19.683 7.055,3.61 16.284,2.4 22.169,-2.908 C 26.301,18.04 18.707,18.646 12.735,15.844 6.764,13.042 3.165,5.787 0,0"
       style="fill:#f5f5f5;fill-opacity:1;fill-rule:nonzero;stroke:none"
       transform="matrix(1.3333333,0,0,-1.3333333,142.23213,155.02573)"
       clip-path="url(#clipPath19)" />
  </g>
</svg>
