<?xml version="1.0" encoding="UTF-8" standalone="no"?>
<!-- Created with Inkscape (http://www.inkscape.org/) -->

<svg
   width="58.278534mm"
   height="30.771147mm"
   viewBox="0 0 58.278534 30.771147"
   version="1.1"
   id="cloud-2"
   inkscape:version="1.3.2 (091e20e, 2023-11-25, custom)"
   sodipodi:docname="cloud-2.svg"
   xmlns:inkscape="http://www.inkscape.org/namespaces/inkscape"
   xmlns:sodipodi="http://sodipodi.sourceforge.net/DTD/sodipodi-0.dtd"
   xmlns="http://www.w3.org/2000/svg"
   xmlns:svg="http://www.w3.org/2000/svg">
  <sodipodi:namedview
     id="namedview1"
     pagecolor="#ffffff"
     bordercolor="#000000"
     borderopacity="0.25"
     inkscape:showpageshadow="2"
     inkscape:pageopacity="0.0"
     inkscape:pagecheckerboard="0"
     inkscape:deskcolor="#d1d1d1"
     inkscape:document-units="mm"
     inkscape:zoom="0.53362093"
     inkscape:cx="99.321441"
     inkscape:cy="225.81573"
     inkscape:window-width="1440"
     inkscape:window-height="837"
     inkscape:window-x="-8"
     inkscape:window-y="-8"
     inkscape:window-maximized="1"
     inkscape:current-layer="layer1" />
  <defs
     id="defs1">
    <clipPath
       clipPathUnits="userSpaceOnUse"
       id="clipPath81">
      <path
         d="M 0,500 H 500 V 0 H 0 Z"
         transform="translate(-450.32181,-400.59571)"
         id="path81" />
    </clipPath>
    <clipPath
       clipPathUnits="userSpaceOnUse"
       id="clipPath83">
      <path
         d="M 0,500 H 500 V 0 H 0 Z"
         transform="translate(-408.53301,-409.77921)"
         id="path83" />
    </clipPath>
    <clipPath
       clipPathUnits="userSpaceOnUse"
       id="clipPath85">
      <path
         d="M 0,500 H 500 V 0 H 0 Z"
         transform="translate(-395.88421,-384.52311)"
         id="path85" />
    </clipPath>
    <clipPath
       clipPathUnits="userSpaceOnUse"
       id="clipPath87">
      <path
         d="M 0,500 H 500 V 0 H 0 Z"
         transform="translate(-409.86871,-391.01821)"
         id="path87" />
    </clipPath>
    <clipPath
       clipPathUnits="userSpaceOnUse"
       id="clipPath89">
      <path
         d="M 0,500 H 500 V 0 H 0 Z"
         transform="translate(-355.63781,-375.38281)"
         id="path89" />
    </clipPath>
    <clipPath
       clipPathUnits="userSpaceOnUse"
       id="clipPath91">
      <path
         d="M 0,500 H 500 V 0 H 0 Z"
         transform="translate(-358.34561,-432.41601)"
         id="path91" />
    </clipPath>
    <clipPath
       clipPathUnits="userSpaceOnUse"
       id="clipPath93">
      <path
         d="M 0,500 H 500 V 0 H 0 Z"
         transform="translate(-309.18201,-375.13941)"
         id="path93" />
    </clipPath>
  </defs>
  <g
     inkscape:label="Calque 1"
     inkscape:groupmode="layer"
     id="layer1"
     transform="translate(-78.845832,-88.635417)">
    <g
       id="g166"
       inkscape:label="cloud-2"
       transform="matrix(0.26458333,0,0,0.26458333,-21.739157,69.237931)">
      <path
         id="path80"
         d="m 0,0 c 0,-9.444 -8.546,-17.099 -19.089,-17.099 -1.758,0 -3.452,0.231 -5.068,0.629 -0.743,-11.588 -11.465,-20.781 -24.588,-20.781 -5.847,0 -11.216,1.829 -15.44,4.878 -4.347,-6.261 -12.093,-10.433 -20.931,-10.433 -7.51,0 -14.23,3.015 -18.749,7.763 -3.879,-1.601 -8.193,-2.501 -12.743,-2.501 -10.058,0 -18.976,5.363 -24.532,12.088 -1.88,-0.555 -3.883,-1.865 -5.97,-1.865 -10.543,0 -18.089,7.655 -18.089,17.099 0,9.443 7.449,16.709 15.074,16.834 2.087,0.034 6.5,-0.75 8.985,-2.6 5.556,6.724 14.474,13.086 24.532,13.086 0.466,0 0.929,-0.012 1.39,-0.031 3.368,8.592 12.499,14.753 23.242,14.753 3.697,0 7.2,-0.734 10.347,-2.04 5.101,8.701 15.281,14.639 27.015,14.639 16.845,0 30.501,-12.232 30.501,-27.321 0,-0.208 -0.012,-0.414 -0.017,-0.622 1.608,0.394 3.293,0.622 5.041,0.622 C -8.546,17.098 0,9.443 0,0"
         style="fill:#ededed;fill-opacity:1;fill-rule:nonzero;stroke:none"
         transform="matrix(1.3333333,0,0,-1.3333333,600.42907,132.53907)"
         clip-path="url(#clipPath81)" />
      <path
         id="path82"
         d="m 0,0 c 4.284,3.133 10.758,3.605 15.552,1.134 4.794,-2.471 7.591,-7.723 6.719,-12.615 -1.718,3.825 -5.016,6.534 -8.924,8.713 C 9.439,-0.59 4.59,0.309 0,0"
         style="fill:#f5f5f5;fill-opacity:1;fill-rule:nonzero;stroke:none"
         transform="matrix(1.3333333,0,0,-1.3333333,544.71067,120.2944)"
         clip-path="url(#clipPath83)" />
      <path
         id="path84"
         d="m 0,0 c -1.604,-3.785 -5.948,-6.534 -10.433,-6.602 -4.486,-0.069 -8.817,2.546 -10.406,6.282 2.931,-2.024 6.471,-2.68 10.202,-2.738 C -6.907,-3.116 -3.091,-1.931 0,0"
         style="fill:#d9d9d9;fill-opacity:1;fill-rule:nonzero;stroke:none"
         transform="matrix(1.3333333,0,0,-1.3333333,527.8456,153.9692)"
         clip-path="url(#clipPath85)" />
      <path
         id="path86"
         d="m 0,0 c -2.373,-4.475 -7.997,-7.387 -13.511,-6.994 -5.513,0.393 -10.553,4.065 -12.104,8.82 3.382,-2.797 7.657,-3.979 12.231,-4.447 C -8.81,-3.09 -4,-2.041 0,0"
         style="fill:#d9d9d9;fill-opacity:1;fill-rule:nonzero;stroke:none"
         transform="matrix(1.3333333,0,0,-1.3333333,546.4916,145.30907)"
         clip-path="url(#clipPath87)" />
      <path
         id="path88"
         d="m 0,0 c -1.654,-3.119 -5.573,-5.148 -9.415,-4.874 -3.843,0.274 -7.354,2.833 -8.436,6.147 2.357,-1.949 5.336,-2.774 8.524,-3.1 C -6.14,-2.153 -2.788,-1.422 0,0"
         style="fill:#d9d9d9;fill-opacity:1;fill-rule:nonzero;stroke:none"
         transform="matrix(1.3333333,0,0,-1.3333333,474.18373,166.15627)"
         clip-path="url(#clipPath89)" />
      <path
         id="path90"
         d="m 0,0 c 3.697,0 7.2,-0.734 10.347,-2.041 5.101,8.702 15.281,14.64 27.015,14.64 16.845,0 30.501,-12.232 30.501,-27.321 0,-0.209 -0.012,-0.415 -0.017,-0.622 1.608,0.394 3.294,0.622 5.042,0.622 6.909,0 12.961,-3.289 16.312,-8.214 -2.316,1.23 -4.863,2.112 -7.512,2.551 -6.364,1.053 -13.199,-0.434 -18.314,-3.985 0.536,8.154 -2.321,16.84 -8.071,23.177 C 49.552,5.145 40.259,9.06 31.216,8.015 22.173,6.97 13.945,0.516 12.578,-7.558 7.482,-3.759 0.885,-1.913 -5.732,-2.276 -8.654,-2.436 -11.538,-3.052 -14.238,-4.062 -10.218,-1.506 -5.307,0 0,0"
         style="fill:#f5f5f5;fill-opacity:1;fill-rule:nonzero;stroke:none"
         transform="matrix(1.3333333,0,0,-1.3333333,477.79413,90.112)"
         clip-path="url(#clipPath91)" />
      <path
         id="path92"
         d="m 0,0 c 5.515,-3.807 12.827,-9.271 19.802,-9.216 6.795,0.053 13.6,2.859 18.34,7.22 5.042,-5.303 13.486,-7.807 21.064,-6.246 7.579,1.56 14.562,6.751 16.513,13.494 4.897,-6.279 13.654,-9.967 22.177,-9.34 7.488,0.55 14.546,4.415 18.651,10.032 -2.245,-10.114 -12.202,-17.739 -24.152,-17.739 -5.848,0 -11.216,1.829 -15.441,4.878 -4.346,-6.261 -12.093,-10.432 -20.93,-10.432 -7.51,0 -14.231,3.014 -18.749,7.762 -3.879,-1.601 -8.193,-2.458 -12.744,-2.5 C 14.265,-12.182 4.89,-6.494 0,0"
         style="fill:#d9d9d9;fill-opacity:1;fill-rule:nonzero;stroke:none"
         transform="matrix(1.3333333,0,0,-1.3333333,412.24267,166.4808)"
         clip-path="url(#clipPath93)" />
    </g>
  </g>
</svg>
