<?xml version="1.0" encoding="UTF-8" standalone="no"?>
<!-- Created with Inkscape (http://www.inkscape.org/) -->

<svg
   width="41.636948mm"
   height="27.747456mm"
   viewBox="0 0 41.636948 27.747456"
   version="1.1"
   id="cloud-4"
   inkscape:version="1.3.2 (091e20e, 2023-11-25, custom)"
   sodipodi:docname="cloud-4.svg"
   xmlns:inkscape="http://www.inkscape.org/namespaces/inkscape"
   xmlns:sodipodi="http://sodipodi.sourceforge.net/DTD/sodipodi-0.dtd"
   xmlns="http://www.w3.org/2000/svg"
   xmlns:svg="http://www.w3.org/2000/svg">
  <sodipodi:namedview
     id="namedview1"
     pagecolor="#ffffff"
     bordercolor="#000000"
     borderopacity="0.25"
     inkscape:showpageshadow="2"
     inkscape:pageopacity="0.0"
     inkscape:pagecheckerboard="0"
     inkscape:deskcolor="#d1d1d1"
     inkscape:document-units="mm"
     inkscape:zoom="0.53362093"
     inkscape:cx="-20.613884"
     inkscape:cy="72.148594"
     inkscape:window-width="1440"
     inkscape:window-height="837"
     inkscape:window-x="-8"
     inkscape:window-y="-8"
     inkscape:window-maximized="1"
     inkscape:current-layer="layer1" />
  <defs
     id="defs1">
    <clipPath
       clipPathUnits="userSpaceOnUse"
       id="clipPath95">
      <path
         d="M 0,500 H 500 V 0 H 0 Z"
         transform="translate(-422.04191,-301.80461)"
         id="path95" />
    </clipPath>
    <clipPath
       clipPathUnits="userSpaceOnUse"
       id="clipPath97">
      <path
         d="M 0,500 H 500 V 0 H 0 Z"
         transform="translate(-391.16951,-313.56121)"
         id="path97" />
    </clipPath>
    <clipPath
       clipPathUnits="userSpaceOnUse"
       id="clipPath99">
      <path
         d="M 0,500 H 500 V 0 H 0 Z"
         transform="translate(-331.11831,-300.96481)"
         id="path99" />
    </clipPath>
    <clipPath
       clipPathUnits="userSpaceOnUse"
       id="clipPath101">
      <path
         d="M 0,500 H 500 V 0 H 0 Z"
         transform="translate(-343.11831,-289.7148)"
         id="path101" />
    </clipPath>
    <clipPath
       clipPathUnits="userSpaceOnUse"
       id="clipPath103">
      <path
         d="M 0,500 H 500 V 0 H 0 Z"
         transform="translate(-321.29161,-298.10921)"
         id="path103" />
    </clipPath>
  </defs>
  <g
     inkscape:label="Calque 1"
     inkscape:groupmode="layer"
     id="layer1"
     transform="translate(-110.59583,-129.38125)">
    <g
       id="g168"
       inkscape:label="cloud-4"
       transform="matrix(0.26458333,0,0,0.26458333,1.6901933,70.970354)">
      <path
         id="path94"
         d="m 0,0 c 1.234,2.189 1.941,4.713 1.941,7.404 0,8.345 -6.765,15.109 -15.109,15.109 -2.337,0 -4.549,-0.53 -6.523,-1.477 -1.419,1.814 -3.014,3.488 -4.757,5 -1.284,0.185 -2.572,0.56 -3.813,1.121 -6.4,2.895 -16.377,3.445 -22.868,1.565 -2.568,-0.744 -6.716,-6.319 -10.5,-7.167 -7.585,-1.7 -15.21,-1.864 -20.309,-12.283 -0.075,-0.253 -0.169,-0.496 -0.239,-0.751 -8.141,-0.462 -15.104,-5.309 -18.573,-12.216 -0.757,0.178 -1.545,0.275 -2.356,0.275 -5.649,0 -10.227,-4.579 -10.227,-10.227 0,-5.648 4.578,-10.228 10.227,-10.228 0.811,0 1.599,0.098 2.356,0.276 -1.212,-6.679 8.121,-16.346 19.788,-8.346 1.333,-9 7.333,-13.666 18.135,-14.088 h 32.09 c 6.773,0 13.506,4.449 15.438,10.583 10.249,1.97 19.992,10.98 19.992,21.803 C 4.693,-8.5 2.94,-3.765 0,0"
         style="fill:#ededed;fill-opacity:1;fill-rule:nonzero;stroke:none"
         transform="matrix(1.3333333,0,0,-1.3333333,562.72253,264.26053)"
         clip-path="url(#clipPath95)" />
      <path
         id="path96"
         d="m 0,0 c 2.006,2.683 5.734,3.941 8.955,3.022 3.222,-0.92 5.725,-3.956 6.012,-7.294 -1.636,2.258 -4.016,3.553 -6.67,4.41 C 5.644,0.995 2.648,0.875 0,0"
         style="fill:#f5f5f5;fill-opacity:1;fill-rule:nonzero;stroke:none"
         transform="matrix(1.3333333,0,0,-1.3333333,521.55933,248.58507)"
         clip-path="url(#clipPath97)" />
      <path
         id="path98"
         d="M 0,0 C 3.539,4.734 10.117,6.954 15.8,5.332 21.484,3.709 25.9,-1.648 26.406,-7.537 23.52,-3.553 20.31,0.383 15.628,1.895 10.947,3.407 4.671,1.543 0,0"
         style="fill:#f5f5f5;fill-opacity:1;fill-rule:nonzero;stroke:none"
         transform="matrix(1.3333333,0,0,-1.3333333,441.49107,265.38027)"
         clip-path="url(#clipPath99)" />
      <path
         id="path100"
         d="M 0,0 C 3.539,4.734 10.117,6.954 15.8,5.332 21.484,3.709 25.9,-1.648 26.406,-7.537 23.52,-3.553 20.31,0.383 15.628,1.895 10.947,3.407 4.671,1.543 0,0"
         style="fill:#f5f5f5;fill-opacity:1;fill-rule:nonzero;stroke:none"
         transform="matrix(1.3333333,0,0,-1.3333333,457.49107,280.38027)"
         clip-path="url(#clipPath101)" />
      <path
         id="path102"
         d="m 0,0 c 2.496,11.355 11.48,11.814 18.574,12.217 2.305,8.429 8.547,17.867 20.881,14.534 1.666,4.333 12.714,10.255 21.166,9.5 10.229,-0.915 14.575,-4.021 20.438,-11.52 1.975,0.947 4.186,1.478 6.523,1.478 6.952,0 12.804,-4.698 14.565,-11.091 -1.81,2.253 -5.896,5.391 -8.692,6.133 -5.324,1.412 -10,0.166 -14.167,-3.167 -5.333,9.917 -11.833,11.833 -20,12.583 C 54.25,31.13 46.455,28.917 40.955,21.917 26.955,24.417 24.02,16.051 22.204,8.558 17.871,10.292 13.559,9.605 9.184,7.98 5.075,6.454 2.684,3.917 0,0"
         style="fill:#f5f5f5;fill-opacity:1;fill-rule:nonzero;stroke:none"
         transform="matrix(1.3333333,0,0,-1.3333333,428.3888,269.18773)"
         clip-path="url(#clipPath103)" />
    </g>
  </g>
</svg>
