<?xml version="1.0" encoding="UTF-8" standalone="no"?>
<!-- Created with Inkscape (http://www.inkscape.org/) -->

<svg
   width="56.27652mm"
   height="25.95104mm"
   viewBox="0 0 56.27652 25.95104"
   version="1.1"
   id="cloud-3"
   inkscape:version="1.3.2 (091e20e, 2023-11-25, custom)"
   sodipodi:docname="cloud-3.svg"
   xmlns:inkscape="http://www.inkscape.org/namespaces/inkscape"
   xmlns:sodipodi="http://sodipodi.sourceforge.net/DTD/sodipodi-0.dtd"
   xmlns="http://www.w3.org/2000/svg"
   xmlns:svg="http://www.w3.org/2000/svg">
  <sodipodi:namedview
     id="namedview1"
     pagecolor="#ffffff"
     bordercolor="#000000"
     borderopacity="0.25"
     inkscape:showpageshadow="2"
     inkscape:pageopacity="0.0"
     inkscape:pagecheckerboard="0"
     inkscape:deskcolor="#d1d1d1"
     inkscape:document-units="mm"
     inkscape:zoom="0.53362093"
     inkscape:cx="-5.6219684"
     inkscape:cy="235.18568"
     inkscape:window-width="1440"
     inkscape:window-height="837"
     inkscape:window-x="-8"
     inkscape:window-y="-8"
     inkscape:window-maximized="1"
     inkscape:current-layer="layer1" />
  <defs
     id="defs1">
    <clipPath
       clipPathUnits="userSpaceOnUse"
       id="clipPath45">
      <path
         d="M 0,500 H 500 V 0 H 0 Z"
         transform="translate(-72.264702,-276.8685)"
         id="path45" />
    </clipPath>
    <clipPath
       clipPathUnits="userSpaceOnUse"
       id="clipPath47">
      <path
         d="M 0,500 H 500 V 0 H 0 Z"
         transform="translate(-174.3094,-314.73461)"
         id="path47" />
    </clipPath>
    <clipPath
       clipPathUnits="userSpaceOnUse"
       id="clipPath49">
      <path
         d="M 0,500 H 500 V 0 H 0 Z"
         transform="translate(-187.80261,-303.37501)"
         id="path49" />
    </clipPath>
    <clipPath
       clipPathUnits="userSpaceOnUse"
       id="clipPath51">
      <path
         d="M 0,500 H 500 V 0 H 0 Z"
         transform="translate(-175.8877,-314.03651)"
         id="path51" />
    </clipPath>
    <clipPath
       clipPathUnits="userSpaceOnUse"
       id="clipPath53">
      <path
         d="M 0,500 H 500 V 0 H 0 Z"
         transform="translate(-102.8874,-301.95001)"
         id="path53" />
    </clipPath>
  </defs>
  <g
     inkscape:label="Calque 1"
     inkscape:groupmode="layer"
     id="layer1"
     transform="translate(-106.3625,-86.254167)">
    <g
       id="g167"
       inkscape:label="cloud-3"
       transform="matrix(0.26458333,0,0,0.26458333,84.141134,26.944992)">
      <path
         id="path44"
         d="m 0,0 c 0.105,0 0.206,-0.012 0.31,-0.016 1.355,6.681 7.023,11.792 13.971,12.31 2.425,11.61 12.716,20.331 25.046,20.331 2.057,0 4.055,-0.249 5.972,-0.707 5.431,13.532 18.664,23.093 34.138,23.093 9.818,0 18.73,-3.854 25.326,-10.123 2.077,0.907 4.369,1.412 6.78,1.412 8.335,0 15.263,-6.008 16.7,-13.929 12.435,-1.743 22.006,-12.418 22.006,-25.334 0,-14.132 -11.456,-25.588 -25.588,-25.588 L 0,-18.551 c -5.122,0 -9.275,4.153 -9.275,9.275 C -9.275,-4.153 -5.122,0 0,0"
         style="fill:#ededed;fill-opacity:1;fill-rule:nonzero;stroke:none"
         transform="matrix(1.3333333,0,0,-1.3333333,96.352933,297.50867)"
         clip-path="url(#clipPath45)" />
      <path
         id="path46"
         d="m 0,0 c -4.947,1.412 -10.672,-0.52 -13.753,-4.641 4.066,1.344 8.667,2.529 12.742,1.213 C 3.064,-4.745 6.72,-7.733 9.231,-11.201 8.79,-6.075 4.947,-1.413 0,0"
         style="fill:#f5f5f5;fill-opacity:1;fill-rule:nonzero;stroke:none"
         transform="matrix(1.3333333,0,0,-1.3333333,232.41253,247.02053)"
         clip-path="url(#clipPath47)" />
      <path
         id="path48"
         d="m 0,0 c -5.844,1.668 -12.607,-0.615 -16.246,-5.482 4.803,1.587 10.239,2.987 15.052,1.432 4.813,-1.555 9.132,-5.085 12.099,-9.181 C 10.384,-7.176 5.844,-1.669 0,0"
         style="fill:#f5f5f5;fill-opacity:1;fill-rule:nonzero;stroke:none"
         transform="matrix(1.3333333,0,0,-1.3333333,250.40347,262.16667)"
         clip-path="url(#clipPath49)" />
      <path
         id="path50"
         d="m 0,0 c -6.251,9.586 -17.065,14.188 -28.475,13.294 -8.482,-0.665 -16.509,-3.935 -23.77,-8.471 6.744,7.962 16.807,13.02 28.059,13.02 9.818,0 18.73,-3.854 25.326,-10.123 2.077,0.907 4.369,1.412 6.78,1.412 5.545,0 14.522,-3.329 16.7,-13.929 C 23.192,-2.197 18.457,4.772 13.4,5.345 8.127,5.942 3.563,3.933 0,0"
         style="fill:#f5f5f5;fill-opacity:1;fill-rule:nonzero;stroke:none"
         transform="matrix(1.3333333,0,0,-1.3333333,234.51693,247.95133)"
         clip-path="url(#clipPath51)" />
      <path
         id="path52"
         d="m 0,0 c -4.765,-2.337 -8.497,-7.088 -8.778,-12.388 4.945,0.967 10.6,-0.715 14.38,-4.046 -3.796,2.243 -7.902,2.091 -12.243,1.318 -4.34,-0.774 -8.377,-3.146 -11.165,-6.562 0.562,1.946 1.642,4.278 2.788,5.949 -5.799,-0.239 -11.022,-2.704 -14.638,-7.085 2.054,5.533 7.183,9.569 13.315,10.027 2.424,11.609 12.715,20.331 25.045,20.331 2.057,0 4.055,-0.249 5.972,-0.708 0.047,0.116 0.098,0.229 0.146,0.345 C 20.733,4.356 26.074,0.342 30.336,-4.636 25.719,-2.019 20.738,0.155 15.561,1.323 10.384,2.491 4.765,2.337 0,0"
         style="fill:#f5f5f5;fill-opacity:1;fill-rule:nonzero;stroke:none"
         transform="matrix(1.3333333,0,0,-1.3333333,137.1832,264.06667)"
         clip-path="url(#clipPath53)" />
    </g>
  </g>
</svg>
