<?xml version="1.0" encoding="UTF-8" standalone="no"?>
<!-- Created with Inkscape (http://www.inkscape.org/) -->

<svg
   width="55.294033mm"
   height="25.534323mm"
   viewBox="0 0 55.294033 25.534323"
   version="1.1"
   id="cloud-8"
   inkscape:version="1.3.2 (091e20e, 2023-11-25, custom)"
   sodipodi:docname="cloud-8.svg"
   xmlns:inkscape="http://www.inkscape.org/namespaces/inkscape"
   xmlns:sodipodi="http://sodipodi.sourceforge.net/DTD/sodipodi-0.dtd"
   xmlns="http://www.w3.org/2000/svg"
   xmlns:svg="http://www.w3.org/2000/svg">
  <sodipodi:namedview
     id="namedview1"
     pagecolor="#ffffff"
     bordercolor="#000000"
     borderopacity="0.25"
     inkscape:showpageshadow="2"
     inkscape:pageopacity="0.0"
     inkscape:pagecheckerboard="0"
     inkscape:deskcolor="#d1d1d1"
     inkscape:document-units="mm"
     inkscape:zoom="0.53362093"
     inkscape:cx="104.94341"
     inkscape:cy="47.786731"
     inkscape:window-width="1440"
     inkscape:window-height="837"
     inkscape:window-x="-8"
     inkscape:window-y="-8"
     inkscape:window-maximized="1"
     inkscape:current-layer="layer1" />
  <defs
     id="defs1">
    <clipPath
       clipPathUnits="userSpaceOnUse"
       id="clipPath37">
      <path
         d="M 0,500 H 500 V 0 H 0 Z"
         transform="translate(-306.60581,-96.827302)"
         id="path37" />
    </clipPath>
    <clipPath
       clipPathUnits="userSpaceOnUse"
       id="clipPath39">
      <path
         d="M 0,500 H 500 V 0 H 0 Z"
         transform="translate(-389.07741,-101.8161)"
         id="path39" />
    </clipPath>
    <clipPath
       clipPathUnits="userSpaceOnUse"
       id="clipPath41">
      <path
         d="M 0,500 H 500 V 0 H 0 Z"
         transform="translate(-430.88341,-99.2547)"
         id="path41" />
    </clipPath>
    <clipPath
       clipPathUnits="userSpaceOnUse"
       id="clipPath43">
      <path
         d="M 0,500 H 500 V 0 H 0 Z"
         transform="translate(-289.35291,-79.574399)"
         id="path43" />
    </clipPath>
  </defs>
  <g
     inkscape:label="Calque 1"
     inkscape:groupmode="layer"
     id="layer1"
     transform="translate(-77.522913,-135.73124)">
    <g
       id="g172"
       inkscape:label="cloud-8"
       transform="matrix(0.26458333,0,0,0.26458333,-24.554323,6.86225)">
      <path
         id="path36"
         d="m 0,0 c 0.711,0 1.411,-0.048 2.1,-0.132 3.894,7.838 11.977,13.227 21.322,13.227 1.955,0 3.853,-0.24 5.671,-0.685 0.522,18.305 18.554,23.906 33.955,23.984 15.349,0.078 25.932,-8.078 33.965,-24.483 2.335,0.765 4.826,1.184 7.417,1.184 13.144,0 23.8,-10.656 23.8,-23.8 0,-0.434 -0.013,-0.864 -0.036,-1.292 0.012,0 0.024,10e-4 0.036,10e-4 6.216,0 11.256,-5.039 11.256,-11.255 0,-6.216 -5.04,-11.255 -11.256,-11.255 H 0 c -9.528,0 -17.253,7.725 -17.253,17.253 C -17.253,-7.724 -9.528,0 0,0"
         style="fill:#ededed;fill-opacity:1;fill-rule:nonzero;stroke:none"
         transform="matrix(1.3333333,0,0,-1.3333333,408.80773,537.5636)"
         clip-path="url(#clipPath37)" />
      <path
         id="path38"
         d="m 0,0 c 3.314,2.706 8.323,3.114 12.031,0.98 3.708,-2.135 5.872,-6.67 5.197,-10.895 -1.329,3.304 -3.88,5.643 -6.904,7.525 C 7.301,-0.509 3.551,0.267 0,0"
         style="fill:#f5f5f5;fill-opacity:1;fill-rule:nonzero;stroke:none"
         transform="matrix(1.3333333,0,0,-1.3333333,518.76987,530.91187)"
         clip-path="url(#clipPath39)" />
      <path
         id="path40"
         d="m 0,0 c -2.732,2.631 -6.1,4.601 -9.766,5.583 -7.343,1.967 -14.551,1.985 -20.115,-3.195 -2.75,9.167 -5.916,14.834 -12.916,19.834 -8.371,5.978 -19.589,9.461 -30.667,7 -7.5,-1.667 -15.5,-7.834 -21.721,-19.239 0.929,22.53 23.819,25.994 34.054,25.405 18.568,-1.067 29.25,-14 33.866,-25.905 2.335,0.765 4.826,1.185 7.417,1.185 C -11.558,10.668 -4.262,6.428 0,0"
         style="fill:#f5f5f5;fill-opacity:1;fill-rule:nonzero;stroke:none"
         transform="matrix(1.3333333,0,0,-1.3333333,574.5112,534.32707)"
         clip-path="url(#clipPath41)" />
      <path
         id="path42"
         d="m 0,0 c 0,9.528 7.724,17.253 17.253,17.253 0.711,0 1.411,-0.048 2.1,-0.132 3.894,7.838 11.977,13.227 21.322,13.227 1.876,0 3.699,-0.224 5.45,-0.634 C 52.181,27.11 57.44,22.621 60.783,16.932 55.981,23.141 46.77,26.555 38.983,25.569 31.196,24.582 25.302,19.063 22.201,11.852 17.51,13.412 12.199,11.974 8.448,8.753 4.698,5.532 2.602,0.599 2.43,-4.342 2.369,-6.111 2.545,-7.875 2.917,-9.601 1.076,-6.856 0,-3.554 0,0"
         style="fill:#f5f5f5;fill-opacity:1;fill-rule:nonzero;stroke:none"
         transform="matrix(1.3333333,0,0,-1.3333333,385.80387,560.56747)"
         clip-path="url(#clipPath43)" />
    </g>
  </g>
</svg>
